<mxfile host="app.diagrams.net" agent="Mozilla/5.0 (Macintosh; Intel Mac OS X 10_15_7) AppleWebKit/605.1.15 (KHTML, like Gecko) Version/18.0 Safari/605.1.15" version="24.7.17">
  <diagram name="Page-1" id="YYRwiA1xToAAdd3JtBlB">
    <mxGraphModel dx="714" dy="1444" grid="1" gridSize="10" guides="1" tooltips="1" connect="1" arrows="1" fold="1" page="1" pageScale="1" pageWidth="827" pageHeight="1169" background="#000000" math="0" shadow="0">
      <root>
        <mxCell id="0" />
        <mxCell id="1" parent="0" />
        <mxCell id="C54k0JOMP-SggSfBIy9h-6" style="edgeStyle=orthogonalEdgeStyle;rounded=0;orthogonalLoop=1;jettySize=auto;html=1;exitX=0.5;exitY=1;exitDx=0;exitDy=0;entryX=0.5;entryY=0;entryDx=0;entryDy=0;strokeColor=#FFFFFF;" parent="1" source="C54k0JOMP-SggSfBIy9h-1" target="C54k0JOMP-SggSfBIy9h-4" edge="1">
          <mxGeometry relative="1" as="geometry" />
        </mxCell>
        <mxCell id="C54k0JOMP-SggSfBIy9h-11" value="API Call: Get Mina Sidor" style="edgeLabel;html=1;align=center;verticalAlign=middle;resizable=0;points=[];" parent="C54k0JOMP-SggSfBIy9h-6" vertex="1" connectable="0">
          <mxGeometry x="-0.3391" y="2" relative="1" as="geometry">
            <mxPoint as="offset" />
          </mxGeometry>
        </mxCell>
        <mxCell id="C54k0JOMP-SggSfBIy9h-7" style="edgeStyle=orthogonalEdgeStyle;rounded=0;orthogonalLoop=1;jettySize=auto;html=1;exitX=1;exitY=0.5;exitDx=0;exitDy=0;entryX=0.5;entryY=0;entryDx=0;entryDy=0;strokeColor=#FFFFFF;" parent="1" source="C54k0JOMP-SggSfBIy9h-1" target="C54k0JOMP-SggSfBIy9h-2" edge="1">
          <mxGeometry relative="1" as="geometry" />
        </mxCell>
        <mxCell id="C54k0JOMP-SggSfBIy9h-9" value="SSO OIDC" style="edgeLabel;html=1;align=center;verticalAlign=middle;resizable=0;points=[];" parent="C54k0JOMP-SggSfBIy9h-7" vertex="1" connectable="0">
          <mxGeometry x="-0.3333" relative="1" as="geometry">
            <mxPoint as="offset" />
          </mxGeometry>
        </mxCell>
        <mxCell id="C54k0JOMP-SggSfBIy9h-1" value="Front end" style="whiteSpace=wrap;html=1;aspect=fixed;strokeColor=#FFFFFF;" parent="1" vertex="1">
          <mxGeometry x="230" y="330" width="80" height="80" as="geometry" />
        </mxCell>
        <mxCell id="C54k0JOMP-SggSfBIy9h-2" value="Auth0" style="whiteSpace=wrap;html=1;aspect=fixed;strokeColor=#FFFFFF;" parent="1" vertex="1">
          <mxGeometry x="500" y="440" width="80" height="80" as="geometry" />
        </mxCell>
        <mxCell id="C54k0JOMP-SggSfBIy9h-3" value="Subscription Mgmt" style="whiteSpace=wrap;html=1;aspect=fixed;strokeColor=#FFFFFF;" parent="1" vertex="1">
          <mxGeometry x="500" y="640" width="80" height="80" as="geometry" />
        </mxCell>
        <mxCell id="C54k0JOMP-SggSfBIy9h-5" style="edgeStyle=orthogonalEdgeStyle;rounded=0;orthogonalLoop=1;jettySize=auto;html=1;entryX=0.5;entryY=1;entryDx=0;entryDy=0;strokeColor=#FFFFFF;exitX=0.5;exitY=1;exitDx=0;exitDy=0;" parent="1" source="C54k0JOMP-SggSfBIy9h-4" target="C54k0JOMP-SggSfBIy9h-3" edge="1">
          <mxGeometry relative="1" as="geometry">
            <mxPoint x="390" y="690" as="targetPoint" />
          </mxGeometry>
        </mxCell>
        <mxCell id="C54k0JOMP-SggSfBIy9h-12" value="Event: cancel subscription" style="edgeLabel;html=1;align=center;verticalAlign=middle;resizable=0;points=[];" parent="C54k0JOMP-SggSfBIy9h-5" vertex="1" connectable="0">
          <mxGeometry x="0.3143" y="2" relative="1" as="geometry">
            <mxPoint as="offset" />
          </mxGeometry>
        </mxCell>
        <mxCell id="C54k0JOMP-SggSfBIy9h-8" style="edgeStyle=orthogonalEdgeStyle;rounded=0;orthogonalLoop=1;jettySize=auto;html=1;exitX=1;exitY=0.25;exitDx=0;exitDy=0;entryX=0;entryY=0.75;entryDx=0;entryDy=0;strokeColor=#FFFFFF;" parent="1" source="C54k0JOMP-SggSfBIy9h-4" target="C54k0JOMP-SggSfBIy9h-2" edge="1">
          <mxGeometry relative="1" as="geometry" />
        </mxCell>
        <mxCell id="C54k0JOMP-SggSfBIy9h-10" value="API Call: Get User Profile" style="edgeLabel;html=1;align=center;verticalAlign=middle;resizable=0;points=[];" parent="C54k0JOMP-SggSfBIy9h-8" vertex="1" connectable="0">
          <mxGeometry x="0.0114" y="-4" relative="1" as="geometry">
            <mxPoint as="offset" />
          </mxGeometry>
        </mxCell>
        <mxCell id="C54k0JOMP-SggSfBIy9h-4" value="Mina Sidor&lt;div&gt;back end&amp;nbsp;&lt;br&gt;&lt;/div&gt;&lt;div&gt;micro service&lt;/div&gt;" style="whiteSpace=wrap;html=1;aspect=fixed;strokeColor=#FFFFFF;" parent="1" vertex="1">
          <mxGeometry x="230" y="640" width="80" height="80" as="geometry" />
        </mxCell>
        <mxCell id="C54k0JOMP-SggSfBIy9h-14" style="edgeStyle=orthogonalEdgeStyle;rounded=0;orthogonalLoop=1;jettySize=auto;html=1;entryX=0.5;entryY=0;entryDx=0;entryDy=0;strokeColor=#FFFFFF;" parent="1" source="C54k0JOMP-SggSfBIy9h-13" target="C54k0JOMP-SggSfBIy9h-1" edge="1">
          <mxGeometry relative="1" as="geometry" />
        </mxCell>
        <mxCell id="C54k0JOMP-SggSfBIy9h-13" value="&lt;font color=&quot;#ffffff&quot;&gt;User&lt;/font&gt;" style="shape=umlActor;verticalLabelPosition=bottom;verticalAlign=top;html=1;outlineConnect=0;strokeColor=#FFFFFF;" parent="1" vertex="1">
          <mxGeometry x="190" y="230" width="30" height="60" as="geometry" />
        </mxCell>
      </root>
    </mxGraphModel>
  </diagram>
</mxfile>
